<svg width="100" height="100" viewBox="0 0 100 100" fill="none" xmlns="http://www.w3.org/2000/svg">
<rect width="100" height="100" rx="50" fill="url(#paint0_linear_1016_89)"/>
<path d="M68.6482 23.2875L69.7618 23.4491C71.4927 23.7232 73.4313 24.1819 74.6228 25.3734C75.8142 26.5649 76.2758 28.5065 76.5499 30.2375L76.7114 31.3482C77.0749 33.9736 77.1701 37.4154 76.5499 41.2352C75.3791 48.4509 71.6524 56.9987 62.4985 63.8276C61.7113 64.4148 61.1662 65.301 61.1879 66.2829L61.2369 67.8494C61.2658 68.8938 61.2485 69.9353 60.96 70.9364C60.4118 72.8405 58.4588 74.0955 56.6327 74.9956L55.7383 75.4197L54.5844 75.9275L53.7968 76.2448C51.7572 77.0238 49.2964 77.569 47.6866 75.9563C46.9567 75.2264 46.6192 74.234 46.348 73.2415L46.2153 72.7453C45.8261 71.2686 45.3938 69.8001 44.8769 68.3658C44.7481 68.0083 44.2774 67.9301 44.0084 68.1985C42.4361 69.768 40.3042 70.5585 38.1723 71.1701L36.7558 71.5596L35.3422 71.9346L33.9632 72.2808L32.717 72.5693L31.2255 72.8867L30.2936 73.0684C29.8289 73.1545 29.3502 73.1262 28.8989 72.986C28.4475 72.8458 28.0371 72.5979 27.7029 72.2637C27.3687 71.9295 27.1208 71.519 26.9806 71.0676C26.8404 70.6162 26.8121 70.1375 26.8981 69.6728L27.2184 68.0831L27.5905 66.4156L27.9482 64.9442L28.5973 62.5064C29.2407 60.1407 30.0225 57.7028 31.7707 55.9574C31.9021 55.8313 31.8552 55.6111 31.6838 55.5495L29.8551 54.8928L27.6424 54.1312C26.3471 53.7042 24.9855 53.2542 24.045 52.3136C22.3256 50.5942 23.0555 47.9111 23.9123 45.8022L24.3912 44.6857L24.7864 43.8173C25.7009 41.8728 26.9991 39.634 29.0647 39.0397C30.0657 38.7512 31.1043 38.7339 32.1515 38.7598L33.718 38.8118C34.7003 38.8372 35.5856 38.2886 36.173 37.5009C42.9992 28.3467 51.5493 24.6199 58.7646 23.4491C62.0333 22.9105 65.3636 22.856 68.6482 23.2875ZM59.6877 29.1441C53.3468 30.174 45.6412 33.5697 39.6291 42.6142C38.8993 43.7105 37.6674 44.2327 36.4125 44.4318C35.7028 44.5472 34.9874 44.576 34.269 44.576L32.114 44.5443C31.4331 44.5406 30.7886 44.8709 30.439 45.4552C30.3759 45.5606 30.3145 45.6672 30.2547 45.7748C29.455 47.213 30.3229 48.9359 31.8696 49.4978L33.418 50.0604L35.198 50.7327C38.4521 52.0078 41.6024 53.5513 44.0257 55.9747C47.4114 59.3605 49.4158 63.6117 50.8571 68.0762C51.3383 69.5668 52.9656 70.4562 54.3287 69.6845C54.4008 69.6438 54.4723 69.6023 54.5434 69.56C55.1269 69.2129 55.4447 68.5658 55.4556 67.8869L55.4239 65.7347C55.4239 65.0192 55.4527 64.3038 55.5681 63.5883C55.7643 62.3333 56.2893 61.1014 57.3856 60.3715C66.4297 54.3591 69.8252 46.6532 70.8551 40.312C71.3744 37.1096 71.2879 34.2477 70.9965 32.1387C70.7863 30.4991 69.4976 29.2112 67.8577 29.0027C65.142 28.6508 62.3893 28.6965 59.6877 29.1441ZM35.8471 60.0368C34.8373 61.2572 34.3671 62.8584 33.9892 64.4451L33.6776 65.7953C33.6049 66.0939 33.873 66.3642 34.1722 66.2939L35.5211 65.9771C37.1077 65.602 38.7117 65.126 39.9292 64.1162C40.4701 63.5749 40.7738 62.8408 40.7736 62.0755C40.7733 61.3102 40.469 60.5763 39.9277 60.0354C39.3864 59.4944 38.6524 59.1907 37.8871 59.1909C37.1218 59.1912 36.388 59.4955 35.8471 60.0368ZM52.1668 39.6383C52.1668 39.6389 52.1675 39.6391 52.1679 39.6388C52.7033 39.1033 53.339 38.6785 54.0385 38.3886C54.7385 38.0985 55.4888 37.9491 56.2465 37.949C57.0042 37.9489 57.7545 38.098 58.4546 38.3878C59.1547 38.6777 59.7909 39.1026 60.3267 39.6383C60.8626 40.174 61.2877 40.8101 61.5778 41.5101C61.8679 42.2101 62.0173 42.9604 62.0174 43.7182C62.0176 44.4759 61.8685 45.2263 61.5786 45.9264C61.2888 46.6265 60.8639 47.2627 60.3282 47.7986C59.2459 48.8809 57.7781 49.4889 56.2475 49.4889C54.717 49.4889 53.2491 48.8809 52.1668 47.7986C51.0846 46.7163 50.4766 45.2484 50.4766 43.7177C50.4766 42.1876 51.0842 40.7201 52.1658 39.6379C52.1662 39.6375 52.1668 39.6378 52.1668 39.6383Z" fill="white"/>
<defs>
<linearGradient id="paint0_linear_1016_89" x1="50" y1="0" x2="50" y2="100" gradientUnits="userSpaceOnUse">
<stop stop-color="#0EEA3A"/>
<stop offset="0.53" stop-color="#41A855"/>
<stop offset="1" stop-color="#6E6E6E"/>
</linearGradient>
</defs>
</svg>
