<svg width="410" height="100" viewBox="0 0 410 100" fill="none" xmlns="http://www.w3.org/2000/svg">
<rect width="100" height="100" rx="50" fill="url(#paint0_linear_1016_95)"/>
<path d="M68.6482 23.2875L69.7618 23.4491C71.4927 23.7232 73.4313 24.1819 74.6228 25.3734C75.8142 26.5649 76.2758 28.5065 76.5499 30.2375L76.7114 31.3482C77.0749 33.9736 77.1701 37.4154 76.5499 41.2352C75.3791 48.4509 71.6524 56.9987 62.4985 63.8276C61.7113 64.4148 61.1662 65.301 61.1879 66.2829L61.2369 67.8494C61.2658 68.8938 61.2485 69.9353 60.96 70.9364C60.4118 72.8405 58.4588 74.0955 56.6327 74.9956L55.7383 75.4197L54.5844 75.9275L53.7968 76.2448C51.7572 77.0238 49.2964 77.569 47.6866 75.9563C46.9567 75.2264 46.6192 74.234 46.348 73.2415L46.2153 72.7453C45.8261 71.2686 45.3938 69.8001 44.8769 68.3658C44.7481 68.0083 44.2774 67.9301 44.0084 68.1985C42.4361 69.768 40.3042 70.5585 38.1723 71.1701L36.7558 71.5596L35.3422 71.9346L33.9632 72.2808L32.717 72.5693L31.2255 72.8867L30.2936 73.0684C29.8289 73.1545 29.3502 73.1262 28.8989 72.986C28.4475 72.8458 28.0371 72.5979 27.7029 72.2637C27.3687 71.9295 27.1208 71.519 26.9806 71.0676C26.8404 70.6162 26.8121 70.1375 26.8981 69.6728L27.2184 68.0831L27.5905 66.4156L27.9482 64.9442L28.5973 62.5064C29.2407 60.1407 30.0225 57.7028 31.7707 55.9574C31.9021 55.8313 31.8552 55.6111 31.6838 55.5495L29.8551 54.8928L27.6424 54.1312C26.3471 53.7042 24.9855 53.2542 24.045 52.3136C22.3256 50.5942 23.0555 47.9111 23.9123 45.8022L24.3912 44.6857L24.7864 43.8173C25.7009 41.8728 26.9991 39.634 29.0647 39.0397C30.0657 38.7512 31.1043 38.7339 32.1515 38.7598L33.718 38.8118C34.7003 38.8372 35.5856 38.2886 36.173 37.5009C42.9992 28.3467 51.5493 24.6199 58.7646 23.4491C62.0333 22.9105 65.3636 22.856 68.6482 23.2875ZM59.6877 29.1441C53.3468 30.174 45.6412 33.5697 39.6291 42.6142C38.8993 43.7105 37.6674 44.2327 36.4125 44.4318C35.7028 44.5472 34.9874 44.576 34.269 44.576L32.114 44.5443C31.4331 44.5406 30.7886 44.8709 30.439 45.4552C30.3759 45.5606 30.3145 45.6672 30.2547 45.7748C29.455 47.213 30.3229 48.9359 31.8696 49.4978L33.418 50.0604L35.198 50.7327C38.4521 52.0078 41.6024 53.5513 44.0257 55.9747C47.4114 59.3605 49.4158 63.6117 50.8571 68.0762C51.3383 69.5668 52.9656 70.4562 54.3287 69.6845C54.4008 69.6438 54.4723 69.6023 54.5434 69.56C55.1269 69.2129 55.4447 68.5658 55.4556 67.8869L55.4239 65.7347C55.4239 65.0192 55.4527 64.3038 55.5681 63.5883C55.7643 62.3333 56.2893 61.1014 57.3856 60.3715C66.4297 54.3591 69.8252 46.6532 70.8551 40.312C71.3744 37.1096 71.2879 34.2477 70.9965 32.1387C70.7863 30.4991 69.4976 29.2112 67.8577 29.0027C65.142 28.6508 62.3893 28.6965 59.6877 29.1441ZM35.8471 60.0368C34.8373 61.2572 34.3671 62.8584 33.9892 64.4451L33.6776 65.7953C33.6049 66.0939 33.873 66.3642 34.1722 66.2939L35.5211 65.9771C37.1077 65.602 38.7117 65.126 39.9292 64.1162C40.4701 63.5749 40.7738 62.8408 40.7736 62.0755C40.7733 61.3102 40.469 60.5763 39.9277 60.0354C39.3864 59.4944 38.6524 59.1907 37.8871 59.1909C37.1218 59.1912 36.388 59.4955 35.8471 60.0368ZM52.1668 39.6383C52.1668 39.6389 52.1675 39.6391 52.1679 39.6388C52.7033 39.1033 53.339 38.6785 54.0385 38.3886C54.7385 38.0985 55.4888 37.9491 56.2465 37.949C57.0042 37.9489 57.7545 38.098 58.4546 38.3878C59.1547 38.6777 59.7909 39.1026 60.3267 39.6383C60.8626 40.174 61.2877 40.8101 61.5778 41.5101C61.8679 42.2101 62.0173 42.9604 62.0174 43.7182C62.0176 44.4759 61.8685 45.2263 61.5786 45.9264C61.2888 46.6265 60.8639 47.2627 60.3282 47.7986C59.2459 48.8809 57.7781 49.4889 56.2475 49.4889C54.717 49.4889 53.2491 48.8809 52.1668 47.7986C51.0846 46.7163 50.4766 45.2484 50.4766 43.7177C50.4766 42.1876 51.0842 40.7201 52.1658 39.6379C52.1662 39.6375 52.1668 39.6378 52.1668 39.6383Z" fill="white"/>
<path d="M132.495 75H121.765V34.3203H132.495V75ZM122.686 28.7148C121.564 27.5671 121.004 26.1523 121.004 24.4707C121.004 22.7891 121.564 21.3877 122.686 20.2666C123.807 19.1455 125.275 18.585 127.09 18.585C128.905 18.585 130.36 19.1455 131.454 20.2666C132.575 21.3877 133.136 22.7891 133.136 24.4707C133.136 26.1523 132.575 27.5671 131.454 28.7148C130.36 29.8359 128.905 30.3965 127.09 30.3965C125.275 30.3965 123.807 29.8359 122.686 28.7148ZM152.755 45.9717V75H142.024V34.3203H151.514V38.084C152.742 36.7227 154.396 35.5749 156.479 34.6406C158.561 33.6797 160.763 33.1992 163.085 33.1992C167.97 33.1992 171.854 34.5472 174.736 37.2432C177.619 39.9124 179.061 43.9964 179.061 49.4951V75H168.33V50.416C168.33 45.1576 165.647 42.5283 160.282 42.5283C158.761 42.5283 157.306 42.8753 155.918 43.5693C154.53 44.2367 153.476 45.0374 152.755 45.9717ZM212.894 45.251H212.093C211.078 44.3968 209.637 43.6628 207.769 43.0488C205.9 42.4349 203.978 42.1279 202.003 42.1279C198.399 42.1279 196.598 43.1689 196.598 45.251C196.598 45.9183 196.891 46.5322 197.479 47.0928C198.066 47.6266 198.613 48.0137 199.12 48.2539C199.654 48.4941 200.468 48.8145 201.562 49.2148C201.803 49.2949 201.976 49.3617 202.083 49.415L207.168 51.377C208.529 51.9108 209.704 52.4847 210.691 53.0986C211.679 53.7126 212.613 54.4867 213.494 55.4209C214.402 56.3551 215.082 57.5163 215.536 58.9043C216.017 60.2656 216.257 61.8271 216.257 63.5889C216.257 67.2725 214.762 70.2887 211.772 72.6377C208.783 74.9867 204.846 76.1611 199.961 76.1611C197.479 76.1611 195.023 75.8542 192.594 75.2402C190.191 74.6263 188.27 73.8923 186.828 73.0381V63.5889H187.629C188.857 64.5765 190.605 65.444 192.874 66.1914C195.17 66.9121 197.252 67.2725 199.12 67.2725C203.818 67.2725 206.167 65.9912 206.167 63.4287C206.167 62.361 205.78 61.4801 205.006 60.7861C204.232 60.0921 202.897 59.3848 201.002 58.6641L196.237 56.8623C195.303 56.5153 194.462 56.1549 193.715 55.7812C192.994 55.4076 192.153 54.887 191.192 54.2197C190.258 53.5257 189.471 52.7783 188.83 51.9775C188.216 51.1768 187.682 50.1624 187.229 48.9346C186.801 47.68 186.588 46.332 186.588 44.8906C186.588 41.6341 187.963 38.8714 190.712 36.6025C193.461 34.3337 196.998 33.1992 201.322 33.1992C203.725 33.1992 205.967 33.5195 208.049 34.1602C210.131 34.7741 211.746 35.4548 212.894 36.2021V45.251ZM248.408 42.8486H238.398V62.4678C238.398 64.2295 238.812 65.404 239.64 65.9912C239.826 66.1247 239.987 66.2448 240.12 66.3516C240.28 66.4316 240.467 66.4984 240.681 66.5518C240.921 66.6051 241.094 66.6585 241.201 66.7119C241.308 66.7386 241.508 66.7653 241.802 66.792C242.095 66.792 242.282 66.792 242.362 66.792C242.442 66.792 242.683 66.792 243.083 66.792C243.51 66.792 243.777 66.792 243.884 66.792C245.432 66.792 246.713 66.6585 247.728 66.3916V75.3203C245.966 75.6406 243.51 75.8008 240.36 75.8008C237.851 75.8008 235.823 75.5872 234.274 75.1602C232.726 74.7598 231.418 74.0257 230.351 72.958C229.176 71.7835 228.429 70.5023 228.108 69.1143C227.815 67.6995 227.668 65.6709 227.668 63.0283V42.8486H218.939V34.3203H227.668V23.6699H238.398V34.3203H248.408V42.8486ZM271.07 56.6221C268.374 56.6221 266.266 57.1559 264.744 58.2236C263.223 59.2646 262.462 60.6794 262.462 62.4678C262.462 64.1494 263.049 65.4574 264.224 66.3916C265.425 67.3258 266.92 67.793 268.708 67.793C270.416 67.793 271.991 67.4727 273.433 66.832C274.901 66.1647 276.035 65.3906 276.836 64.5098V57.543C275.288 56.929 273.366 56.6221 271.07 56.6221ZM257.457 45.5713H256.656V36.2021C257.724 35.4814 259.579 34.8008 262.222 34.1602C264.891 33.5195 267.547 33.1992 270.189 33.1992C275.501 33.1992 279.719 34.4805 282.842 37.043C285.992 39.5788 287.566 43.1823 287.566 47.8535V75H277.396V71.877C276.329 73.0247 274.781 74.0257 272.752 74.8799C270.723 75.734 268.494 76.1611 266.065 76.1611C263.583 76.1611 261.287 75.6807 259.179 74.7197C257.097 73.7588 255.375 72.2507 254.014 70.1953C252.652 68.14 251.972 65.6976 251.972 62.8682C251.972 58.7308 253.667 55.4076 257.057 52.8984C260.447 50.3626 264.664 49.0947 269.709 49.0947C272.352 49.0947 274.727 49.5085 276.836 50.3359V48.7744C276.836 46.7725 276.169 45.1842 274.834 44.0098C273.499 42.8086 271.377 42.208 268.468 42.208C266.172 42.208 264.023 42.5417 262.021 43.209C260.02 43.8763 258.498 44.6637 257.457 45.5713ZM307.386 75H296.655V20.0664H307.386V75ZM314.272 54.6602C314.272 48.4674 316.341 43.3424 320.479 39.2852C324.643 35.2279 329.848 33.1992 336.094 33.1992C340.204 33.1992 343.915 34.1068 347.225 35.9219C350.561 37.7103 353.177 40.2461 355.072 43.5293C356.967 46.8125 357.915 50.5228 357.915 54.6602C357.915 58.7975 356.967 62.5078 355.072 65.791C353.177 69.0742 350.561 71.6234 347.225 73.4385C343.915 75.2536 340.204 76.1611 336.094 76.1611C331.983 76.1611 328.259 75.2536 324.923 73.4385C321.613 71.6234 319.01 69.0742 317.115 65.791C315.22 62.5078 314.272 58.7975 314.272 54.6602ZM328.006 46.0117C326.031 48.2539 325.043 51.1367 325.043 54.6602C325.043 58.1836 326.031 61.0798 328.006 63.3486C329.981 65.5908 332.677 66.7119 336.094 66.7119C339.51 66.7119 342.206 65.5908 344.182 63.3486C346.157 61.0798 347.145 58.1836 347.145 54.6602C347.145 51.1367 346.157 48.2539 344.182 46.0117C342.206 43.7428 339.51 42.6084 336.094 42.6084C332.677 42.6084 329.981 43.7428 328.006 46.0117ZM367.484 77.3623H368.405C370.114 78.2699 372.182 79.0173 374.611 79.6045C377.04 80.1917 379.563 80.4854 382.179 80.4854C386.743 80.4854 389.946 79.6979 391.788 78.123C392.669 77.3757 393.229 76.5749 393.47 75.7207C393.71 74.8665 393.83 73.6654 393.83 72.1172V70.3154C391.214 72.5042 387.544 73.5986 382.819 73.5986C380.07 73.5986 377.454 73.1449 374.972 72.2373C372.516 71.3298 370.34 70.0485 368.445 68.3936C366.577 66.7386 365.082 64.6299 363.961 62.0674C362.867 59.5049 362.319 56.6755 362.319 53.5791C362.319 50.5361 362.893 47.7201 364.041 45.1309C365.215 42.515 366.764 40.3529 368.686 38.6445C370.634 36.9362 372.836 35.6016 375.292 34.6406C377.774 33.6797 380.337 33.1992 382.979 33.1992C385.409 33.1992 387.731 33.6263 389.946 34.4805C392.188 35.3346 393.883 36.3757 395.031 37.6035V34.3203H404.561V71.1562C404.561 76.8685 403.386 80.9925 401.037 83.5283C399.062 85.6637 396.606 87.2253 393.67 88.2129C390.734 89.2005 387.037 89.6943 382.579 89.6943C379.75 89.6943 376.894 89.4274 374.011 88.8936C371.155 88.3597 368.979 87.6924 367.484 86.8916V77.3623ZM384.901 64.4297C388.398 64.4297 391.374 63.3086 393.83 61.0664V45.7314C393.003 44.904 391.815 44.1566 390.267 43.4893C388.745 42.7952 386.957 42.4482 384.901 42.4482C381.565 42.4482 378.762 43.5026 376.493 45.6113C374.224 47.6934 373.09 50.3226 373.09 53.499C373.09 56.889 374.171 59.5583 376.333 61.5068C378.522 63.4554 381.378 64.4297 384.901 64.4297Z" fill="white"/>
<defs>
<linearGradient id="paint0_linear_1016_95" x1="50" y1="0" x2="50" y2="100" gradientUnits="userSpaceOnUse">
<stop stop-color="#0EEA3A"/>
<stop offset="0.53" stop-color="#41A855"/>
<stop offset="1" stop-color="#6E6E6E"/>
</linearGradient>
</defs>
</svg>
